<?xml version="1.0" standalone="no"?>
<!DOCTYPE svg PUBLIC "-//W3C//DTD SVG 20010904//EN"
 "http://www.w3.org/TR/2001/REC-SVG-20010904/DTD/svg10.dtd">
<svg version="1.0" xmlns="http://www.w3.org/2000/svg"
 width="300.000000pt" height="300.000000pt" viewBox="0 0 300.000000 300.000000"
 preserveAspectRatio="xMidYMid meet">

<g transform="translate(0.000000,300.000000) scale(0.100000,-0.100000)"
fill="#000000" stroke="none">
<path d="M122 2024 c-21 -14 -22 -21 -22 -167 l0 -152 155 -155 c115 -115 155
-161 155 -179 0 -13 8 -33 17 -43 14 -15 15 -21 4 -27 -22 -14 -9 -56 18 -59
32 -5 54 23 40 49 -9 18 -3 19 153 19 l163 0 0 -32 c0 -30 3 -33 30 -33 27 0
30 3 30 33 0 24 4 32 17 32 10 0 18 7 18 15 0 13 -24 15 -159 15 -87 0 -179 3
-203 6 l-46 6 54 49 c31 28 64 49 77 49 59 0 252 21 260 29 10 10 39 230 31
242 -3 5 -42 9 -87 9 l-83 0 -155 155 -155 155 -145 0 c-115 0 -149 -3 -167
-16z m132 -60 c21 -20 21 -64 1 -64 -9 0 -18 -7 -21 -15 -8 -19 -48 -19 -64 0
-7 8 -12 26 -12 40 0 14 5 32 12 40 16 20 64 19 84 -1z m566 -294 c0 -23 -5
-30 -19 -30 -13 0 -20 9 -23 30 -4 26 -1 30 19 30 19 0 23 -5 23 -30z m70 16
c0 -30 -13 -46 -36 -46 -20 0 -24 5 -24 30 0 27 3 30 30 30 19 0 30 -5 30 -14z
m-70 -91 c0 -33 -2 -35 -35 -35 -28 0 -35 4 -35 19 0 25 26 51 51 51 15 0 19
-7 19 -35z m60 16 c0 -33 -11 -51 -31 -51 -14 0 -19 7 -19 28 0 33 7 42 32 42
11 0 18 -7 18 -19z m-140 -41 c0 -5 -4 -10 -10 -10 -5 0 -10 5 -10 10 0 6 5
10 10 10 6 0 10 -4 10 -10z m-2 -47 c-2 -23 -8 -29 -35 -31 -35 -3 -40 6 -23
39 6 11 21 19 36 19 22 0 25 -4 22 -27z m82 2 c0 -22 -4 -25 -35 -25 -31 0
-35 3 -35 25 0 22 4 25 35 25 31 0 35 -3 35 -25z m50 6 c0 -19 -23 -35 -34
-24 -14 15 -5 43 14 43 13 0 20 -7 20 -19z m-390 -257 c0 -19 -28 -30 -42 -16
-8 8 -8 15 1 26 14 17 41 10 41 -10z m376 -13 c-9 -14 -33 -14 -41 -1 -4 6 -1
18 6 26 11 13 14 13 27 0 8 -8 11 -19 8 -25z"/>
<path d="M450 1269 c0 -5 5 -7 10 -4 6 3 10 8 10 11 0 2 -4 4 -10 4 -5 0 -10
-5 -10 -11z"/>
<path d="M825 1270 c4 -6 11 -8 16 -5 14 9 11 15 -7 15 -8 0 -12 -5 -9 -10z"/>
<path d="M1052 1487 c-12 -5 -25 -22 -29 -35 -6 -26 11 -47 63 -78 15 -10 17
-14 6 -25 -9 -10 -19 -11 -41 -2 -25 9 -31 8 -36 -5 -12 -31 52 -54 100 -36
20 8 37 48 28 69 -3 9 -23 25 -45 36 -45 23 -45 45 0 42 28 -3 53 20 34 30
-21 12 -60 14 -80 4z"/>
<path d="M1393 1485 c-61 -26 -74 -106 -24 -156 48 -48 116 -37 147 23 42 81
-39 169 -123 133z m85 -78 c5 -38 -14 -67 -43 -67 -32 0 -59 41 -51 75 14 54
87 47 94 -8z"/>
<path d="M2435 1493 c-58 -14 -89 -87 -61 -141 31 -60 99 -71 147 -23 31 32
39 84 18 123 -9 16 -70 51 -81 47 -2 -1 -12 -3 -23 -6z m69 -76 c11 -31 -14
-77 -44 -77 -48 0 -69 76 -29 104 28 19 61 7 73 -27z"/>
<path d="M1170 1395 c0 -88 1 -95 20 -95 17 0 20 7 20 40 0 38 2 40 29 40 27
0 30 -3 33 -37 2 -30 7 -38 23 -38 18 0 20 8 23 93 l3 92 -26 0 c-22 0 -25 -4
-25 -35 0 -32 -2 -35 -30 -35 -28 0 -30 3 -30 35 0 28 -4 35 -20 35 -19 0 -20
-7 -20 -95z"/>
<path d="M1550 1395 c0 -88 1 -95 20 -95 16 0 20 7 20 34 0 31 3 34 35 40 36
7 55 30 55 65 0 34 -27 51 -81 51 l-49 0 0 -95z m80 50 c15 -18 5 -35 -21 -35
-14 0 -19 7 -19 25 0 28 21 33 40 10z"/>
<path d="M1770 1395 l0 -95 50 0 c43 0 50 3 50 20 0 16 -7 20 -30 20 l-30 0 0
75 c0 68 -2 75 -20 75 -19 0 -20 -7 -20 -95z"/>
<path d="M1916 1400 c-20 -50 -36 -92 -36 -95 0 -16 43 -2 47 15 8 29 75 28
95 -1 7 -12 21 -20 30 -18 13 3 10 18 -21 96 -30 77 -40 93 -57 93 -18 0 -28
-16 -58 -90z m71 -16 c-3 -3 -12 -4 -20 -2 -11 2 -12 9 -5 28 l10 25 11 -23
c5 -12 8 -25 4 -28z"/>
<path d="M2080 1395 c0 -88 1 -95 20 -95 16 0 20 7 20 34 0 30 4 34 32 40 43
8 58 23 58 57 0 41 -24 59 -81 59 l-49 0 0 -95z m79 56 c19 -12 6 -41 -19 -41
-15 0 -20 7 -20 25 0 26 14 31 39 16z"/>
<path d="M2220 1476 c0 -8 10 -16 23 -18 20 -3 22 -9 25 -80 3 -70 5 -78 22
-78 18 0 20 7 20 80 0 73 2 80 20 80 11 0 20 7 20 15 0 12 -14 15 -65 15 -50
0 -65 -3 -65 -14z"/>
<path d="M2580 1394 c0 -86 2 -95 18 -92 11 2 18 14 20 34 3 26 9 33 31 37 36
8 61 32 61 61 0 36 -30 56 -83 56 l-47 0 0 -96z m78 38 c3 -17 -2 -22 -17 -22
-16 0 -21 6 -21 26 0 33 33 30 38 -4z"/>
</g>
</svg>
